<?xml version="1.0" encoding="UTF-8" standalone="no"?>
<svg
  xmlns:dc="http://purl.org/dc/elements/1.1/"
  xmlns:cc="http://creativecommons.org/ns#"
  xmlns:rdf="http://www.w3.org/1999/02/22-rdf-syntax-ns#"
  xmlns="http://www.w3.org/2000/svg"
  xmlns:sodipodi="http://sodipodi.sourceforge.net/DTD/sodipodi-0.dtd"
  xmlns:inkscape="http://www.inkscape.org/namespaces/inkscape"
  clip-rule="evenodd"
  fill-rule="evenodd"
  viewBox="0 0 130 130"
  version="1.1"
  id="svg6"
  sodipodi:docname="facebook-logo.svg"
  width="130"
  height="130"
  inkscape:version="1.0.1 (3bc2e813f5, 2020-09-07)">
  <metadata
    id="metadata12">
    <rdf:RDF>
      <cc:Work
        rdf:about="">
        <dc:format>image/svg+xml</dc:format>
        <dc:type
          rdf:resource="http://purl.org/dc/dcmitype/StillImage" />
        <dc:title></dc:title>
      </cc:Work>
    </rdf:RDF>
  </metadata>
  <defs
    id="defs10" />
  <sodipodi:namedview
    pagecolor="#ffffff"
    bordercolor="#666666"
    borderopacity="1"
    objecttolerance="10"
    gridtolerance="10"
    guidetolerance="10"
    inkscape:pageopacity="0"
    inkscape:pageshadow="2"
    inkscape:window-width="1920"
    inkscape:window-height="1016"
    id="namedview8"
    showgrid="false"
    fit-margin-top="15"
    fit-margin-left="15"
    fit-margin-right="15"
    fit-margin-bottom="15"
    inkscape:pagecheckerboard="true"
    lock-margins="true"
    inkscape:zoom="2.155"
    inkscape:cx="-22.956463"
    inkscape:cy="46.390517"
    inkscape:window-x="0"
    inkscape:window-y="27"
    inkscape:window-maximized="1"
    inkscape:current-layer="svg6"
    inkscape:document-rotation="0" />
  <g
    id="g138"
    transform="matrix(0.38447343,0,0,0.38447343,-23.447343,-23.447343)">
    <path
      d="M 360.096,230.048 C 360.096,158.23 301.866,100 230.048,100 158.23,100 100,158.23 100,230.048 c 0,64.905 47.55,118.709 109.73,128.476 V 267.649 H 176.701 V 230.048 H 209.73 V 201.39 c 0,-32.59 19.422,-50.604 49.122,-50.604 14.228,0 29.115,2.542 29.115,2.542 v 32.005 h -16.405 c -16.148,0 -21.196,10.022 -21.196,20.318 v 24.396 h 36.064 l -5.761,37.601 h -30.304 v 90.875 c 62.18,-9.749 109.73,-63.553 109.73,-128.476 z"
      fill="#1977f3"
      id="path2" />
    <path
      d="m 280.67,267.648 5.761,-37.601 h -36.064 v -24.396 c 0,-10.278 5.029,-20.318 21.196,-20.318 h 16.405 v -32.005 c 0,0 -14.886,-2.542 -29.115,-2.542 -29.7,0 -49.122,17.996 -49.122,50.604 v 28.658 h -33.029 v 37.601 h 33.029 v 90.875 c 6.62,1.041 13.405,1.572 20.318,1.572 6.913,0 13.698,-0.549 20.318,-1.572 v -90.875 h 30.304 z"
      fill="#fefefe"
      id="path4" />
  </g>
</svg>
